STARTFONT 2.1
FONT -Monotype-Bookman Old Style-Regular-R-Normal--19-140-100-100-P-91-iso8859-9
SIZE 14 100 100
FONTBOUNDINGBOX 28 22 -4 -5

STARTPROPERTIES 24
FOUNDRY "Monotype"
FAMILY_NAME "Bookman Old Style"
WEIGHT_NAME "Regular"
SLANT "R"
SETWIDTH_NAME "Normal"
ADD_STYLE_NAME ""
PIXEL_SIZE 19
POINT_SIZE 140
RESOLUTION_X 100
RESOLUTION_Y 100
SPACING "P"
AVERAGE_WIDTH 91
CHARSET_REGISTRY "iso8859"
CHARSET_ENCODING "9"
FACE_NAME "Bookman Old Style ISO Latin5"
_DEC_DEVICE_FONTNAMES "PS=bookmanoldstyle-lat5"
COPYRIGHT "Copyright (c) 1994 Monotype Typography Ltd."
CAP_HEIGHT 14
X_HEIGHT 10
WEIGHT 10
QUAD_WIDTH 14
DEFAULT_CHAR 160
FONT_DESCENT 5
FONT_ASCENT 17
ENDPROPERTIES

CHARS 191

STARTCHAR space
ENCODING 32
SWIDTH 320 0
DWIDTH 6 0
BBX 0 0 0 0
BITMAP
ENDCHAR

STARTCHAR exclam
ENCODING 33
SWIDTH 300 0
DWIDTH 6 0
BBX 2 14 2 0
BITMAP
C0
C0
C0
C0
C0
C0
C0
C0
C0
40
40
00
C0
C0
ENDCHAR

STARTCHAR quotedbl
ENCODING 34
SWIDTH 380 0
DWIDTH 7 0
BBX 4 5 2 8
BITMAP
90
90
90
90
90
ENDCHAR

STARTCHAR numbersign
ENCODING 35
SWIDTH 600 0
DWIDTH 11 0
BBX 11 13 0 0
BITMAP
1980
1980
1980
1980
7FE0
1980
3300
3300
FFC0
3300
3300
3300
3300
ENDCHAR

STARTCHAR dollar
ENCODING 36
SWIDTH 620 0
DWIDTH 12 0
BBX 10 17 1 -2
BITMAP
0800
0800
3D00
6B80
C980
C880
E800
7C00
1F00
0B80
08C0
88C0
C8C0
E980
5F00
0800
0800
ENDCHAR

STARTCHAR percent
ENCODING 37
SWIDTH 900 0
DWIDTH 17 0
BBX 16 13 1 0
BITMAP
7830
CC20
8440
8440
8480
CC80
791E
0133
0121
0221
0221
0433
0C1E
ENDCHAR

STARTCHAR ampersand
ENCODING 38
SWIDTH 800 0
DWIDTH 15 0
BBX 14 13 1 0
BITMAP
1E00
3300
2100
2100
3300
1E78
6320
C1A0
C1A0
C0C8
C0CC
61E4
3E38
ENDCHAR

STARTCHAR quoteright
ENCODING 39
SWIDTH 220 0
DWIDTH 4 0
BBX 3 5 1 9
BITMAP
60
60
20
40
80
ENDCHAR

STARTCHAR parenleft
ENCODING 40
SWIDTH 300 0
DWIDTH 6 0
BBX 4 18 2 -4
BITMAP
10
20
60
40
C0
C0
C0
C0
C0
C0
C0
C0
C0
C0
40
60
20
10
ENDCHAR

STARTCHAR parenright
ENCODING 41
SWIDTH 300 0
DWIDTH 6 0
BBX 4 18 1 -4
BITMAP
80
40
60
20
30
30
30
30
30
30
30
30
30
30
20
60
40
80
ENDCHAR

STARTCHAR asterisk
ENCODING 42
SWIDTH 440 0
DWIDTH 8 0
BBX 7 6 1 7
BITMAP
10
10
FE
10
28
6C
ENDCHAR

STARTCHAR plus
ENCODING 43
SWIDTH 600 0
DWIDTH 11 0
BBX 9 9 1 2
BITMAP
0800
0800
0800
0800
FF80
0800
0800
0800
0800
ENDCHAR

STARTCHAR comma
ENCODING 44
SWIDTH 320 0
DWIDTH 6 0
BBX 3 5 1 -3
BITMAP
60
60
20
40
80
ENDCHAR

STARTCHAR minus
ENCODING 45
SWIDTH 600 0
DWIDTH 11 0
BBX 9 1 1 6
BITMAP
FF80
ENDCHAR

STARTCHAR period
ENCODING 46
SWIDTH 320 0
DWIDTH 6 0
BBX 2 2 2 0
BITMAP
C0
C0
ENDCHAR

STARTCHAR slash
ENCODING 47
SWIDTH 600 0
DWIDTH 11 0
BBX 8 18 2 -4
BITMAP
03
02
02
06
04
04
0C
08
18
10
10
30
20
20
60
40
40
C0
ENDCHAR

STARTCHAR zero
ENCODING 48
SWIDTH 620 0
DWIDTH 12 0
BBX 10 13 1 0
BITMAP
1E00
2100
6180
C0C0
C0C0
C0C0
C0C0
C0C0
C0C0
C0C0
6180
2100
1E00
ENDCHAR

STARTCHAR one
ENCODING 49
SWIDTH 620 0
DWIDTH 12 0
BBX 6 13 3 0
BITMAP
10
F0
30
30
30
30
30
30
30
30
30
30
FC
ENDCHAR

STARTCHAR two
ENCODING 50
SWIDTH 620 0
DWIDTH 12 0
BBX 9 14 1 -1
BITMAP
3E00
6300
4180
8180
8180
0300
0300
0600
0C00
1800
3080
6080
FF80
0080
ENDCHAR

STARTCHAR three
ENCODING 51
SWIDTH 620 0
DWIDTH 12 0
BBX 10 13 1 0
BITMAP
3F00
6380
4180
0180
0300
1E00
0300
0180
00C0
00C0
80C0
C180
7F00
ENDCHAR

STARTCHAR four
ENCODING 52
SWIDTH 620 0
DWIDTH 12 0
BBX 10 13 1 0
BITMAP
0300
0700
0B00
1300
1300
2300
4300
8300
FFC0
0300
0300
0300
0300
ENDCHAR

STARTCHAR five
ENCODING 53
SWIDTH 620 0
DWIDTH 12 0
BBX 9 14 2 0
BITMAP
0100
FF00
FF00
8000
8000
8000
FC00
8F00
0380
0180
0180
8180
C300
7E00
ENDCHAR

STARTCHAR six
ENCODING 54
SWIDTH 620 0
DWIDTH 12 0
BBX 10 13 1 0
BITMAP
0F00
3800
6000
6000
DF00
E180
C0C0
C0C0
C0C0
C0C0
C0C0
6180
3F00
ENDCHAR

STARTCHAR seven
ENCODING 55
SWIDTH 620 0
DWIDTH 12 0
BBX 10 14 1 0
BITMAP
4000
7FC0
FFC0
8180
0100
0300
0600
0600
0C00
0C00
0C00
1800
1800
1800
ENDCHAR

STARTCHAR eight
ENCODING 56
SWIDTH 620 0
DWIDTH 12 0
BBX 10 13 1 0
BITMAP
1E00
3300
6180
6180
7300
3E00
1F00
6180
C0C0
C0C0
C0C0
6180
3F00
ENDCHAR

STARTCHAR nine
ENCODING 57
SWIDTH 620 0
DWIDTH 12 0
BBX 10 13 1 0
BITMAP
3F00
6180
C0C0
C0C0
C0C0
C0C0
C0C0
61C0
3EC0
0180
0180
0700
3C00
ENDCHAR

STARTCHAR colon
ENCODING 58
SWIDTH 320 0
DWIDTH 6 0
BBX 2 9 2 0
BITMAP
C0
C0
00
00
00
00
00
C0
C0
ENDCHAR

STARTCHAR semicolon
ENCODING 59
SWIDTH 320 0
DWIDTH 6 0
BBX 3 12 1 -3
BITMAP
60
60
00
00
00
00
00
60
60
20
40
80
ENDCHAR

STARTCHAR less
ENCODING 60
SWIDTH 600 0
DWIDTH 11 0
BBX 8 8 2 2
BITMAP
03
0E
38
E0
E0
38
0E
03
ENDCHAR

STARTCHAR equal
ENCODING 61
SWIDTH 600 0
DWIDTH 11 0
BBX 9 4 1 4
BITMAP
FF80
0000
0000
FF80
ENDCHAR

STARTCHAR greater
ENCODING 62
SWIDTH 600 0
DWIDTH 11 0
BBX 8 8 2 2
BITMAP
C0
70
1C
07
07
1C
70
C0
ENDCHAR

STARTCHAR question
ENCODING 63
SWIDTH 540 0
DWIDTH 10 0
BBX 8 14 2 0
BITMAP
7C
C6
83
03
03
03
07
0E
78
40
40
00
60
60
ENDCHAR

STARTCHAR at
ENCODING 64
SWIDTH 820 0
DWIDTH 16 0
BBX 16 18 0 -5
BITMAP
03F0
0C0C
1002
2002
40D1
4131
8231
8621
8421
8C62
8CC2
8DCC
4670
4001
2002
1004
0C18
03E0
ENDCHAR

STARTCHAR A
ENCODING 65
SWIDTH 680 0
DWIDTH 13 0
BBX 13 13 0 0
BITMAP
0200
0700
0700
0D80
0980
08C0
10C0
1FC0
1060
2060
2030
6030
F078
ENDCHAR

STARTCHAR B
ENCODING 66
SWIDTH 740 0
DWIDTH 14 0
BBX 12 13 1 0
BITMAP
FF00
60C0
6060
6060
6060
60C0
7FC0
6060
6030
6030
6030
6060
FF80
ENDCHAR

STARTCHAR C
ENCODING 67
SWIDTH 740 0
DWIDTH 14 0
BBX 12 13 1 0
BITMAP
0FD0
3870
6030
6010
C000
C000
C000
C000
C000
6010
6030
30E0
0F80
ENDCHAR

STARTCHAR D
ENCODING 68
SWIDTH 800 0
DWIDTH 15 0
BBX 13 13 1 0
BITMAP
FF80
60E0
6030
6030
6018
6018
6018
6018
6018
6030
6030
60E0
FF80
ENDCHAR

STARTCHAR E
ENCODING 69
SWIDTH 720 0
DWIDTH 13 0
BBX 11 13 1 0
BITMAP
FFC0
60E0
6060
6020
6200
6200
7E00
6200
6200
6020
6060
60E0
FFC0
ENDCHAR

STARTCHAR F
ENCODING 70
SWIDTH 640 0
DWIDTH 12 0
BBX 10 13 1 0
BITMAP
FF80
61C0
60C0
6040
6200
6200
7E00
6200
6200
6000
6000
6000
F000
ENDCHAR

STARTCHAR G
ENCODING 71
SWIDTH 800 0
DWIDTH 15 0
BBX 13 13 1 0
BITMAP
0FD0
3070
6030
6010
C000
C000
C078
C030
C030
6030
6030
3070
0F90
ENDCHAR

STARTCHAR H
ENCODING 72
SWIDTH 800 0
DWIDTH 15 0
BBX 13 13 1 0
BITMAP
F078
6030
6030
6030
6030
6030
7FF0
6030
6030
6030
6030
6030
F078
ENDCHAR

STARTCHAR I
ENCODING 73
SWIDTH 340 0
DWIDTH 6 0
BBX 4 13 1 0
BITMAP
F0
60
60
60
60
60
60
60
60
60
60
60
F0
ENDCHAR

STARTCHAR J
ENCODING 74
SWIDTH 600 0
DWIDTH 11 0
BBX 10 13 0 0
BITMAP
03C0
0180
0180
0180
0180
0180
0180
0180
8180
C180
C180
6300
3E00
ENDCHAR

STARTCHAR K
ENCODING 75
SWIDTH 720 0
DWIDTH 14 0
BBX 12 13 1 0
BITMAP
F1F0
60C0
6180
6300
6600
6C00
7E00
7600
6300
6180
61C0
60E0
F1F0
ENDCHAR

STARTCHAR L
ENCODING 76
SWIDTH 600 0
DWIDTH 11 0
BBX 10 13 1 0
BITMAP
F000
6000
6000
6000
6000
6000
6000
6000
6000
6040
60C0
61C0
FF80
ENDCHAR

STARTCHAR M
ENCODING 77
SWIDTH 920 0
DWIDTH 17 0
BBX 14 13 2 0
BITMAP
E03C
7038
7038
5858
5858
5858
4C98
4C98
4C98
4718
4718
4318
E23C
ENDCHAR

STARTCHAR N
ENCODING 78
SWIDTH 740 0
DWIDTH 14 0
BBX 12 13 1 0
BITMAP
E070
7020
5820
4820
4C20
4620
4320
4120
41A0
40E0
4060
4060
E020
ENDCHAR

STARTCHAR O
ENCODING 79
SWIDTH 800 0
DWIDTH 15 0
BBX 13 13 1 0
BITMAP
0F80
3060
6030
6030
C018
C018
C018
C018
C018
6030
6030
3060
0F80
ENDCHAR

STARTCHAR P
ENCODING 80
SWIDTH 620 0
DWIDTH 12 0
BBX 10 13 1 0
BITMAP
FE00
6180
60C0
60C0
60C0
6180
7E00
6000
6000
6000
6000
6000
F000
ENDCHAR

STARTCHAR Q
ENCODING 81
SWIDTH 820 0
DWIDTH 16 0
BBX 14 16 1 -3
BITMAP
0FC0
3030
6018
6018
C00C
C00C
C00C
C00C
C00C
6018
6018
3030
0FC0
0300
0310
01E0
ENDCHAR

STARTCHAR R
ENCODING 82
SWIDTH 720 0
DWIDTH 14 0
BBX 12 13 1 0
BITMAP
FF00
60C0
6060
6060
6060
60C0
7F00
6600
6300
6180
61C0
60E0
F070
ENDCHAR

STARTCHAR S
ENCODING 83
SWIDTH 660 0
DWIDTH 13 0
BBX 11 13 1 0
BITMAP
3F40
61C0
C0C0
C040
E000
7C00
1F80
01C0
00E0
8060
C060
E0C0
BF80
ENDCHAR

STARTCHAR T
ENCODING 84
SWIDTH 620 0
DWIDTH 12 0
BBX 12 14 0 0
BITMAP
4020
7FE0
C630
8610
8610
0600
0600
0600
0600
0600
0600
0600
0600
0F00
ENDCHAR

STARTCHAR U
ENCODING 85
SWIDTH 780 0
DWIDTH 15 0
BBX 13 13 1 0
BITMAP
F038
6010
6010
6010
6010
6010
6010
6010
6010
6010
6010
3020
1FC0
ENDCHAR

STARTCHAR V
ENCODING 86
SWIDTH 700 0
DWIDTH 13 0
BBX 13 13 0 0
BITMAP
F038
6010
3010
3020
1820
1840
1840
0C40
0C80
0680
0700
0300
0200
ENDCHAR

STARTCHAR W
ENCODING 87
SWIDTH 960 0
DWIDTH 18 0
BBX 18 13 0 0
BITMAP
F1E1C0
60C080
30C080
304100
18E100
18A200
18A200
0D3200
0D3400
071400
061C00
061800
020800
ENDCHAR

STARTCHAR X
ENCODING 88
SWIDTH 720 0
DWIDTH 14 0
BBX 14 13 0 0
BITMAP
7C78
3830
1860
0CC0
0680
0700
0300
0580
08C0
1860
3030
6038
F07C
ENDCHAR

STARTCHAR Y
ENCODING 89
SWIDTH 640 0
DWIDTH 12 0
BBX 12 13 0 0
BITMAP
F8F0
7060
3040
1880
1880
0D00
0F00
0600
0600
0600
0600
0600
0F00
ENDCHAR

STARTCHAR Z
ENCODING 90
SWIDTH 640 0
DWIDTH 12 0
BBX 11 13 1 0
BITMAP
7FC0
E0C0
C180
8300
0600
0600
0C00
1800
3000
3020
6060
C0E0
FFC0
ENDCHAR

STARTCHAR bracketleft
ENCODING 91
SWIDTH 300 0
DWIDTH 6 0
BBX 3 18 2 -4
BITMAP
E0
C0
C0
C0
C0
C0
C0
C0
C0
C0
C0
C0
C0
C0
C0
C0
C0
E0
ENDCHAR

STARTCHAR backslash
ENCODING 92
SWIDTH 600 0
DWIDTH 11 0
BBX 8 18 2 -4
BITMAP
C0
40
40
60
20
20
30
10
10
18
08
0C
04
04
06
02
02
03
ENDCHAR

STARTCHAR bracketright
ENCODING 93
SWIDTH 300 0
DWIDTH 6 0
BBX 3 18 1 -4
BITMAP
E0
60
60
60
60
60
60
60
60
60
60
60
60
60
60
60
60
E0
ENDCHAR

STARTCHAR asciicircum
ENCODING 94
SWIDTH 600 0
DWIDTH 11 0
BBX 8 7 2 6
BITMAP
18
18
3C
24
66
42
C3
ENDCHAR

STARTCHAR underscore
ENCODING 95
SWIDTH 500 0
DWIDTH 10 0
BBX 10 1 0 -2
BITMAP
FFC0
ENDCHAR

STARTCHAR quoteleft
ENCODING 96
SWIDTH 220 0
DWIDTH 4 0
BBX 3 5 1 9
BITMAP
20
40
80
C0
C0
ENDCHAR

STARTCHAR a
ENCODING 97
SWIDTH 580 0
DWIDTH 11 0
BBX 11 9 0 0
BITMAP
3F00
6380
6180
0180
3F80
6180
C180
E380
7CE0
ENDCHAR

STARTCHAR b
ENCODING 98
SWIDTH 620 0
DWIDTH 12 0
BBX 10 14 1 0
BITMAP
2000
E000
6000
6000
6000
6F00
7180
60C0
60C0
60C0
60C0
60C0
7180
4F00
ENDCHAR

STARTCHAR c
ENCODING 99
SWIDTH 520 0
DWIDTH 10 0
BBX 8 9 1 0
BITMAP
3E
63
C1
C0
C0
C0
C1
62
3C
ENDCHAR

STARTCHAR d
ENCODING 100
SWIDTH 620 0
DWIDTH 12 0
BBX 10 14 1 0
BITMAP
0080
0380
0180
0180
0180
3D80
6380
C180
C180
C180
C180
C180
6380
3DC0
ENDCHAR

STARTCHAR e
ENCODING 101
SWIDTH 520 0
DWIDTH 10 0
BBX 8 9 1 0
BITMAP
3E
63
C1
FF
C0
C0
C0
61
3E
ENDCHAR

STARTCHAR f
ENCODING 102
SWIDTH 320 0
DWIDTH 6 0
BBX 7 14 1 0
BITMAP
1C
26
60
60
60
F8
60
60
60
60
60
60
60
F0
ENDCHAR

STARTCHAR g
ENCODING 103
SWIDTH 540 0
DWIDTH 10 0
BBX 9 13 1 -4
BITMAP
3D80
4600
C300
C300
E200
7C00
8000
C000
7C00
6700
C180
C180
7F00
ENDCHAR

STARTCHAR h
ENCODING 104
SWIDTH 660 0
DWIDTH 13 0
BBX 11 14 1 0
BITMAP
2000
E000
6000
6000
6000
6F80
71C0
60C0
60C0
60C0
60C0
60C0
60C0
F1E0
ENDCHAR

STARTCHAR i
ENCODING 105
SWIDTH 300 0
DWIDTH 6 0
BBX 4 14 1 0
BITMAP
60
60
00
00
00
20
E0
60
60
60
60
60
60
F0
ENDCHAR

STARTCHAR j
ENCODING 106
SWIDTH 300 0
DWIDTH 6 0
BBX 6 18 -2 -4
BITMAP
0C
0C
00
00
00
04
1C
0C
0C
0C
0C
0C
0C
0C
0C
0C
C8
70
ENDCHAR

STARTCHAR k
ENCODING 107
SWIDTH 620 0
DWIDTH 12 0
BBX 11 14 1 0
BITMAP
2000
E000
6000
6000
6000
63E0
6180
6300
6600
6C00
7600
6300
6180
F3E0
ENDCHAR

STARTCHAR l
ENCODING 108
SWIDTH 300 0
DWIDTH 6 0
BBX 4 14 1 0
BITMAP
20
E0
60
60
60
60
60
60
60
60
60
60
60
F0
ENDCHAR

STARTCHAR m
ENCODING 109
SWIDTH 940 0
DWIDTH 18 0
BBX 16 9 1 0
BITMAP
2FBC
F3CE
6186
6186
6186
6186
6186
6186
F3CF
ENDCHAR

STARTCHAR n
ENCODING 110
SWIDTH 660 0
DWIDTH 13 0
BBX 11 9 1 0
BITMAP
2F80
F1C0
60C0
60C0
60C0
60C0
60C0
60C0
F1E0
ENDCHAR

STARTCHAR o
ENCODING 111
SWIDTH 560 0
DWIDTH 11 0
BBX 9 9 1 0
BITMAP
1C00
6300
C180
C180
C180
C180
C180
6300
1C00
ENDCHAR

STARTCHAR p
ENCODING 112
SWIDTH 620 0
DWIDTH 12 0
BBX 10 13 1 -4
BITMAP
2F00
F180
60C0
60C0
60C0
60C0
60C0
7180
6F00
6000
6000
6000
F000
ENDCHAR

STARTCHAR q
ENCODING 113
SWIDTH 580 0
DWIDTH 11 0
BBX 10 13 1 -4
BITMAP
3E80
6380
C180
C180
C180
C180
C180
6380
3D80
0180
0180
0180
03C0
ENDCHAR

STARTCHAR r
ENCODING 114
SWIDTH 440 0
DWIDTH 8 0
BBX 7 9 1 0
BITMAP
2E
F2
60
60
60
60
60
60
F0
ENDCHAR

STARTCHAR s
ENCODING 115
SWIDTH 520 0
DWIDTH 10 0
BBX 8 9 1 0
BITMAP
7C
E6
C2
70
3C
0E
83
C6
7C
ENDCHAR

STARTCHAR t
ENCODING 116
SWIDTH 380 0
DWIDTH 7 0
BBX 6 12 1 0
BITMAP
20
20
60
FC
60
60
60
60
60
60
64
38
ENDCHAR

STARTCHAR u
ENCODING 117
SWIDTH 680 0
DWIDTH 13 0
BBX 11 9 1 0
BITMAP
E1C0
60C0
60C0
60C0
60C0
60C0
60C0
71C0
3EE0
ENDCHAR

STARTCHAR v
ENCODING 118
SWIDTH 520 0
DWIDTH 10 0
BBX 10 9 0 0
BITMAP
F3C0
6180
6100
3100
3200
1A00
1C00
0C00
0800
ENDCHAR

STARTCHAR w
ENCODING 119
SWIDTH 780 0
DWIDTH 15 0
BBX 15 9 0 0
BITMAP
F79E
630C
6188
3188
3290
1AD0
1C60
0C60
0840
ENDCHAR

STARTCHAR x
ENCODING 120
SWIDTH 560 0
DWIDTH 11 0
BBX 11 9 0 0
BITMAP
7BC0
3180
1900
0E00
0C00
1600
3300
6180
F3E0
ENDCHAR

STARTCHAR y
ENCODING 121
SWIDTH 540 0
DWIDTH 10 0
BBX 11 13 -1 -4
BITMAP
78E0
30C0
3080
1880
1900
0900
0E00
0600
0600
0400
0C00
C800
7000
ENDCHAR

STARTCHAR z
ENCODING 122
SWIDTH 480 0
DWIDTH 9 0
BBX 9 9 0 0
BITMAP
3F80
6300
4600
0C00
1800
3000
6080
C180
FF00
ENDCHAR

STARTCHAR braceleft
ENCODING 123
SWIDTH 280 0
DWIDTH 5 0
BBX 5 18 0 -4
BITMAP
08
10
30
30
30
30
30
20
C0
20
30
30
30
30
30
30
10
08
ENDCHAR

STARTCHAR bar
ENCODING 124
SWIDTH 600 0
DWIDTH 11 0
BBX 2 18 5 -4
BITMAP
C0
C0
C0
C0
C0
C0
C0
C0
C0
C0
C0
C0
C0
C0
C0
C0
C0
C0
ENDCHAR

STARTCHAR braceright
ENCODING 125
SWIDTH 280 0
DWIDTH 5 0
BBX 5 18 0 -4
BITMAP
80
40
60
60
60
60
60
20
18
20
60
60
60
60
60
60
40
80
ENDCHAR

STARTCHAR asciitilde
ENCODING 126
SWIDTH 600 0
DWIDTH 11 0
BBX 8 2 2 5
BITMAP
7B
DE
ENDCHAR

STARTCHAR space
ENCODING 160
SWIDTH 320 0
DWIDTH 7 0
BBX 0 0 0 0
BITMAP
ENDCHAR

STARTCHAR exclamdown
ENCODING 161
SWIDTH 300 0
DWIDTH 6 0
BBX 2 13 2 -4
BITMAP
C0
C0
00
40
C0
C0
C0
C0
C0
C0
C0
C0
C0
ENDCHAR

STARTCHAR cent
ENCODING 162
SWIDTH 620 0
DWIDTH 12 0
BBX 8 13 2 0
BITMAP
08
08
1C
6B
4B
C8
C8
C8
69
3E
08
08
08
ENDCHAR

STARTCHAR sterling
ENCODING 163
SWIDTH 620 0
DWIDTH 12 0
BBX 11 13 0 0
BITMAP
0F80
18C0
3040
3040
1000
FF00
1800
1800
0820
7820
8820
8FE0
7180
ENDCHAR

STARTCHAR currency
ENCODING 164
SWIDTH 600 0
DWIDTH 11 0
BBX 8 8 2 3
BITMAP
BD
66
C1
81
81
C3
66
BD
ENDCHAR

STARTCHAR yen
ENCODING 165
SWIDTH 620 0
DWIDTH 12 0
BBX 12 13 0 0
BITMAP
F8F0
7060
3040
1880
1880
0D00
0D00
7FE0
0600
7FE0
0600
0600
0F80
ENDCHAR

STARTCHAR brokenbar
ENCODING 166
SWIDTH 600 0
DWIDTH 11 0
BBX 1 18 5 -4
BITMAP
80
80
80
80
80
80
80
80
80
00
80
80
80
80
80
80
80
80
ENDCHAR

STARTCHAR section
ENCODING 167
SWIDTH 520 0
DWIDTH 10 0
BBX 9 17 1 -4
BITMAP
3C00
4300
C300
C100
E000
3C00
4F00
8300
8100
C100
7A00
1E00
0300
8180
C180
C300
3E00
ENDCHAR

STARTCHAR dieresis
ENCODING 168
SWIDTH 420 0
DWIDTH 8 0
BBX 5 2 1 11
BITMAP
D8
D8
ENDCHAR

STARTCHAR copyright
ENCODING 169
SWIDTH 740 0
DWIDTH 14 0
BBX 13 13 1 0
BITMAP
0F80
3060
27D0
4850
5048
B008
B008
B008
5008
58D0
2720
1040
0F80
ENDCHAR

STARTCHAR ordfeminine
ENCODING 170
SWIDTH 420 0
DWIDTH 8 0
BBX 7 6 1 7
BITMAP
70
C8
38
C8
98
6E
ENDCHAR

STARTCHAR guillemotleft
ENCODING 171
SWIDTH 360 0
DWIDTH 7 0
BBX 5 7 1 1
BITMAP
28
50
50
A0
50
50
28
ENDCHAR

STARTCHAR logicalnot
ENCODING 172
SWIDTH 600 0
DWIDTH 11 0
BBX 9 4 1 4
BITMAP
FF80
0080
0080
0080
ENDCHAR

STARTCHAR hyphen
ENCODING 173
SWIDTH 400 0
DWIDTH 8 0
BBX 6 1 1 4
BITMAP
FC
ENDCHAR

STARTCHAR registered
ENCODING 174
SWIDTH 740 0
DWIDTH 14 0
BBX 14 13 0 0
BITMAP
0FC0
1030
3F08
48C8
88C4
8884
8F04
8904
4884
5CE8
2010
1860
0780
ENDCHAR

STARTCHAR macron
ENCODING 175
SWIDTH 440 0
DWIDTH 8 0
BBX 6 1 1 11
BITMAP
FC
ENDCHAR

STARTCHAR degree
ENCODING 176
SWIDTH 400 0
DWIDTH 8 0
BBX 5 5 1 8
BITMAP
70
88
88
88
70
ENDCHAR

STARTCHAR plusminus
ENCODING 177
SWIDTH 600 0
DWIDTH 11 0
BBX 9 11 1 1
BITMAP
0800
0800
0800
0800
FF80
0800
0800
0800
0800
0000
FF80
ENDCHAR

STARTCHAR twosuperior
ENCODING 178
SWIDTH 372 0
DWIDTH 7 0
BBX 6 7 0 6
BITMAP
78
84
84
0C
10
64
FC
ENDCHAR

STARTCHAR threesuperior
ENCODING 179
SWIDTH 372 0
DWIDTH 7 0
BBX 6 7 0 6
BITMAP
38
44
04
18
04
C4
38
ENDCHAR

STARTCHAR acute
ENCODING 180
SWIDTH 340 0
DWIDTH 6 0
BBX 4 3 1 10
BITMAP
30
70
C0
ENDCHAR

STARTCHAR mu
ENCODING 181
SWIDTH 680 0
DWIDTH 13 0
BBX 9 12 2 -3
BITMAP
6300
6300
6300
6300
6300
6300
6300
6780
B900
8000
C000
C000
ENDCHAR

STARTCHAR paragraph
ENCODING 182
SWIDTH 600 0
DWIDTH 11 0
BBX 8 17 2 -4
BITMAP
3F
FA
FA
FA
FA
FA
3A
0A
0A
0A
0A
0A
0A
0A
0A
0A
0A
ENDCHAR

STARTCHAR periodcentered
ENCODING 183
SWIDTH 320 0
DWIDTH 6 0
BBX 2 2 2 5
BITMAP
C0
C0
ENDCHAR

STARTCHAR cedilla
ENCODING 184
SWIDTH 320 0
DWIDTH 6 0
BBX 3 4 2 -4
BITMAP
80
C0
20
C0
ENDCHAR

STARTCHAR onesuperior
ENCODING 185
SWIDTH 372 0
DWIDTH 7 0
BBX 3 7 2 6
BITMAP
C0
40
40
40
40
40
E0
ENDCHAR

STARTCHAR ordmasculine
ENCODING 186
SWIDTH 420 0
DWIDTH 8 0
BBX 6 6 1 7
BITMAP
78
CC
84
84
CC
30
ENDCHAR

STARTCHAR guillemotright
ENCODING 187
SWIDTH 360 0
DWIDTH 7 0
BBX 5 7 1 1
BITMAP
A0
50
50
28
50
50
A0
ENDCHAR

STARTCHAR onequarter
ENCODING 188
SWIDTH 930 0
DWIDTH 18 0
BBX 15 13 2 0
BITMAP
C030
4060
4040
4080
4100
4100
E208
0418
0428
0848
10FE
3008
2008
ENDCHAR

STARTCHAR onehalf
ENCODING 189
SWIDTH 930 0
DWIDTH 18 0
BBX 14 13 3 0
BITMAP
C020
4040
40C0
4080
4100
4300
E278
0484
0C84
080C
1010
2064
60FC
ENDCHAR

STARTCHAR threequarters
ENCODING 190
SWIDTH 930 0
DWIDTH 18 0
BBX 17 13 0 0
BITMAP
380C00
440800
041000
183000
042000
C44000
38C200
008600
010A00
031200
023F80
040200
080200
ENDCHAR

STARTCHAR questiondown
ENCODING 191
SWIDTH 540 0
DWIDTH 10 0
BBX 8 13 1 -4
BITMAP
06
06
00
04
04
3C
60
C0
C0
C0
41
63
1E
ENDCHAR

STARTCHAR Agrave
ENCODING 192
SWIDTH 680 0
DWIDTH 13 0
BBX 13 17 0 0
BITMAP
1800
0C00
0600
0000
0200
0700
0700
0D80
0980
08C0
10C0
1FC0
1060
2060
2030
6030
F078
ENDCHAR

STARTCHAR Aacute
ENCODING 193
SWIDTH 680 0
DWIDTH 13 0
BBX 13 17 0 0
BITMAP
00C0
0180
0300
0000
0200
0700
0700
0D80
0980
08C0
10C0
1FC0
1060
2060
2030
6030
F078
ENDCHAR

STARTCHAR Acircumflex
ENCODING 194
SWIDTH 680 0
DWIDTH 13 0
BBX 13 17 0 0
BITMAP
0700
0D80
18C0
0000
0200
0700
0700
0D80
0980
08C0
10C0
1FC0
1060
2060
2030
6030
F078
ENDCHAR

STARTCHAR Atilde
ENCODING 195
SWIDTH 680 0
DWIDTH 13 0
BBX 13 17 0 0
BITMAP
0C80
1F80
1300
0000
0200
0700
0700
0D80
0980
08C0
10C0
1FC0
1060
2060
2030
6030
F078
ENDCHAR

STARTCHAR Adieresis
ENCODING 196
SWIDTH 680 0
DWIDTH 13 0
BBX 13 16 0 0
BITMAP
0D80
0D80
0000
0200
0700
0700
0D80
0980
08C0
10C0
1FC0
1060
2060
2030
6030
F078
ENDCHAR

STARTCHAR Aring
ENCODING 197
SWIDTH 680 0
DWIDTH 13 0
BBX 13 16 0 0
BITMAP
0600
0900
0900
0600
0700
0700
0D80
0980
08C0
10C0
1FC0
1060
2060
2030
6030
F078
ENDCHAR

STARTCHAR AE
ENCODING 198
SWIDTH 1260 0
DWIDTH 24 0
BBX 22 13 1 0
BITMAP
01FFF8
008C1C
018C0C
010C04
020C40
060C40
07FFC0
0C0C40
180C40
100C04
300C0C
600C1C
F01FF8
ENDCHAR

STARTCHAR Ccedilla
ENCODING 199
SWIDTH 740 0
DWIDTH 14 0
BBX 12 17 1 -4
BITMAP
0FD0
3870
6030
6010
C000
C000
C000
C000
C000
6010
6030
30E0
0F80
0200
0300
0080
0700
ENDCHAR

STARTCHAR Egrave
ENCODING 200
SWIDTH 720 0
DWIDTH 13 0
BBX 11 17 1 0
BITMAP
3000
1800
0C00
0000
FFC0
60E0
6060
6020
6200
6200
7E00
6200
6200
6020
6060
60E0
FFC0
ENDCHAR

STARTCHAR Eacute
ENCODING 201
SWIDTH 720 0
DWIDTH 13 0
BBX 11 17 1 0
BITMAP
0300
0600
0C00
0000
FFC0
60E0
6060
6020
6200
6200
7E00
6200
6200
6020
6060
60E0
FFC0
ENDCHAR

STARTCHAR Ecircumflex
ENCODING 202
SWIDTH 720 0
DWIDTH 13 0
BBX 11 17 1 0
BITMAP
0E00
1B00
3180
0000
FFC0
60E0
6060
6020
6200
6200
7E00
6200
6200
6020
6060
60E0
FFC0
ENDCHAR

STARTCHAR Edieresis
ENCODING 203
SWIDTH 720 0
DWIDTH 13 0
BBX 11 16 1 0
BITMAP
1980
1980
0000
FFC0
60E0
6060
6020
6200
6200
7E00
6200
6200
6020
6060
60E0
FFC0
ENDCHAR

STARTCHAR Igrave
ENCODING 204
SWIDTH 340 0
DWIDTH 6 0
BBX 4 17 1 0
BITMAP
C0
60
30
00
F0
60
60
60
60
60
60
60
60
60
60
60
F0
ENDCHAR

STARTCHAR Iacute
ENCODING 205
SWIDTH 340 0
DWIDTH 6 0
BBX 4 17 1 0
BITMAP
30
60
C0
00
F0
60
60
60
60
60
60
60
60
60
60
60
F0
ENDCHAR

STARTCHAR Icircumflex
ENCODING 206
SWIDTH 340 0
DWIDTH 6 0
BBX 6 17 0 0
BITMAP
30
78
CC
00
78
30
30
30
30
30
30
30
30
30
30
30
78
ENDCHAR

STARTCHAR Idieresis
ENCODING 207
SWIDTH 340 0
DWIDTH 6 0
BBX 6 16 0 0
BITMAP
CC
CC
00
78
30
30
30
30
30
30
30
30
30
30
30
78
ENDCHAR

STARTCHAR Gbreve
ENCODING 208
SWIDTH 800 0
DWIDTH 15 0
BBX 13 16 1 0
BITMAP
0C60
07C0
0000
0FD0
3070
6030
6010
C000
C000
C078
C030
C030
6030
6030
3070
0F90
ENDCHAR

STARTCHAR Ntilde
ENCODING 209
SWIDTH 740 0
DWIDTH 14 0
BBX 12 17 1 0
BITMAP
0C80
1F80
1300
0000
E070
7020
5820
4820
4C20
4620
4320
4120
41A0
40E0
4060
4060
E020
ENDCHAR

STARTCHAR Ograve
ENCODING 210
SWIDTH 800 0
DWIDTH 15 0
BBX 13 17 1 0
BITMAP
0C00
0600
0300
0000
0F80
3060
6030
6030
C018
C018
C018
C018
C018
6030
6030
3060
0F80
ENDCHAR

STARTCHAR Oacute
ENCODING 211
SWIDTH 800 0
DWIDTH 15 0
BBX 13 17 1 0
BITMAP
0180
0300
0600
0000
0F80
3060
6030
6030
C018
C018
C018
C018
C018
6030
6030
3060
0F80
ENDCHAR

STARTCHAR Ocircumflex
ENCODING 212
SWIDTH 800 0
DWIDTH 15 0
BBX 13 17 1 0
BITMAP
0700
0D80
18C0
0000
0F80
3060
6030
6030
C018
C018
C018
C018
C018
6030
6030
3060
0F80
ENDCHAR

STARTCHAR Otilde
ENCODING 213
SWIDTH 800 0
DWIDTH 15 0
BBX 13 17 1 0
BITMAP
0640
0FC0
0980
0000
0F80
3060
6030
6030
C018
C018
C018
C018
C018
6030
6030
3060
0F80
ENDCHAR

STARTCHAR Odieresis
ENCODING 214
SWIDTH 800 0
DWIDTH 15 0
BBX 13 16 1 0
BITMAP
18C0
18C0
0000
0F80
3060
6030
6030
C018
C018
C018
C018
C018
6030
6030
3060
0F80
ENDCHAR

STARTCHAR multiply
ENCODING 215
SWIDTH 600 0
DWIDTH 11 0
BBX 8 7 2 3
BITMAP
C3
66
3C
18
3C
66
C3
ENDCHAR

STARTCHAR Oslash
ENCODING 216
SWIDTH 800 0
DWIDTH 15 0
BBX 13 13 1 0
BITMAP
0FB0
3060
6070
60B0
C118
C118
C218
C218
C418
6830
7030
3060
6F80
ENDCHAR

STARTCHAR Ugrave
ENCODING 217
SWIDTH 780 0
DWIDTH 15 0
BBX 13 17 1 0
BITMAP
0600
0300
0180
0000
F038
6010
6010
6010
6010
6010
6010
6010
6010
6010
6010
3020
1FC0
ENDCHAR

STARTCHAR Uacute
ENCODING 218
SWIDTH 780 0
DWIDTH 15 0
BBX 13 17 1 0
BITMAP
0180
0300
0600
0000
F038
6010
6010
6010
6010
6010
6010
6010
6010
6010
6010
3020
1FC0
ENDCHAR

STARTCHAR Ucircumflex
ENCODING 219
SWIDTH 780 0
DWIDTH 15 0
BBX 13 17 1 0
BITMAP
0700
0D80
18C0
0000
F038
6010
6010
6010
6010
6010
6010
6010
6010
6010
6010
3020
1FC0
ENDCHAR

STARTCHAR Udieresis
ENCODING 220
SWIDTH 780 0
DWIDTH 15 0
BBX 13 16 1 0
BITMAP
0CC0
0CC0
0000
F038
6010
6010
6010
6010
6010
6010
6010
6010
6010
6010
3020
1FC0
ENDCHAR

STARTCHAR Idotaccent
ENCODING 221
SWIDTH 340 0
DWIDTH 6 0
BBX 4 16 1 0
BITMAP
60
60
00
F0
60
60
60
60
60
60
60
60
60
60
60
F0
ENDCHAR

STARTCHAR Scedilla
ENCODING 222
SWIDTH 660 0
DWIDTH 13 0
BBX 11 17 1 -4
BITMAP
3F40
61C0
C0C0
C040
E000
7C00
1F80
01C0
00E0
8060
C060
E0C0
BF80
0400
0600
0100
0E00
ENDCHAR

STARTCHAR germandbls
ENCODING 223
SWIDTH 660 0
DWIDTH 13 0
BBX 10 14 1 0
BITMAP
1E00
2300
6300
6300
6C00
E800
6C00
6700
6180
60C0
60C0
68C0
7880
EF00
ENDCHAR

STARTCHAR agrave
ENCODING 224
SWIDTH 580 0
DWIDTH 11 0
BBX 11 13 0 0
BITMAP
1800
0C00
0600
0000
3F00
6380
6180
0180
3F80
6180
C180
E380
7CE0
ENDCHAR

STARTCHAR aacute
ENCODING 225
SWIDTH 580 0
DWIDTH 11 0
BBX 11 13 0 0
BITMAP
0300
0600
0C00
0000
3F00
6380
6180
0180
3F80
6180
C180
E380
7CE0
ENDCHAR

STARTCHAR acircumflex
ENCODING 226
SWIDTH 580 0
DWIDTH 11 0
BBX 11 13 0 0
BITMAP
0E00
1B00
3180
0000
3F00
6380
6180
0180
3F80
6180
C180
E380
7CE0
ENDCHAR

STARTCHAR atilde
ENCODING 227
SWIDTH 580 0
DWIDTH 11 0
BBX 11 13 0 0
BITMAP
1900
3F00
2600
0000
3F00
6380
6180
0180
3F80
6180
C180
E380
7CE0
ENDCHAR

STARTCHAR adieresis
ENCODING 228
SWIDTH 580 0
DWIDTH 11 0
BBX 11 12 0 0
BITMAP
1980
1980
0000
3F00
6380
6180
0180
3F80
6180
C180
E380
7CE0
ENDCHAR

STARTCHAR aring
ENCODING 229
SWIDTH 580 0
DWIDTH 11 0
BBX 11 14 0 0
BITMAP
0C00
1200
1200
0C00
0000
3F00
6380
6180
0180
3F80
6180
C180
E380
7CE0
ENDCHAR

STARTCHAR ae
ENCODING 230
SWIDTH 860 0
DWIDTH 16 0
BBX 15 9 0 0
BITMAP
3E3C
63C6
6182
01FE
3F80
6180
C180
E2C2
7C7C
ENDCHAR

STARTCHAR ccedilla
ENCODING 231
SWIDTH 520 0
DWIDTH 10 0
BBX 8 13 1 -4
BITMAP
3E
63
C1
C0
C0
C0
C1
62
3C
08
0C
02
1C
ENDCHAR

STARTCHAR egrave
ENCODING 232
SWIDTH 520 0
DWIDTH 10 0
BBX 8 13 1 0
BITMAP
30
18
0C
00
3E
63
C1
FF
C0
C0
C0
61
3E
ENDCHAR

STARTCHAR eacute
ENCODING 233
SWIDTH 520 0
DWIDTH 10 0
BBX 8 13 1 0
BITMAP
06
0C
18
00
3E
63
C1
FF
C0
C0
C0
61
3E
ENDCHAR

STARTCHAR ecircumflex
ENCODING 234
SWIDTH 520 0
DWIDTH 10 0
BBX 8 13 1 0
BITMAP
1C
36
63
00
3E
63
C1
FF
C0
C0
C0
61
3E
ENDCHAR

STARTCHAR edieresis
ENCODING 235
SWIDTH 520 0
DWIDTH 10 0
BBX 8 12 1 0
BITMAP
66
66
00
3E
63
C1
FF
C0
C0
C0
61
3E
ENDCHAR

STARTCHAR igrave
ENCODING 236
SWIDTH 300 0
DWIDTH 6 0
BBX 4 13 1 0
BITMAP
C0
60
30
00
20
E0
60
60
60
60
60
60
F0
ENDCHAR

STARTCHAR iacute
ENCODING 237
SWIDTH 300 0
DWIDTH 6 0
BBX 4 13 1 0
BITMAP
30
60
C0
00
20
E0
60
60
60
60
60
60
F0
ENDCHAR

STARTCHAR icircumflex
ENCODING 238
SWIDTH 300 0
DWIDTH 6 0
BBX 6 13 0 0
BITMAP
30
78
CC
00
10
70
30
30
30
30
30
30
78
ENDCHAR

STARTCHAR idieresis
ENCODING 239
SWIDTH 300 0
DWIDTH 6 0
BBX 5 12 0 0
BITMAP
D8
D8
00
10
70
30
30
30
30
30
30
78
ENDCHAR

STARTCHAR gbreve
ENCODING 240
SWIDTH 540 0
DWIDTH 10 0
BBX 9 16 1 -4
BITMAP
6600
3C00
0000
3D80
4600
C300
C300
E200
7C00
8000
C000
7C00
6700
C180
C180
7F00
ENDCHAR

STARTCHAR ntilde
ENCODING 241
SWIDTH 660 0
DWIDTH 13 0
BBX 11 13 1 0
BITMAP
1900
3F00
2600
0000
2F80
F1C0
60C0
60C0
60C0
60C0
60C0
60C0
FBE0
ENDCHAR

STARTCHAR ograve
ENCODING 242
SWIDTH 560 0
DWIDTH 11 0
BBX 9 13 1 0
BITMAP
3000
1800
0C00
0000
1C00
6300
C180
C180
C180
C180
C180
6300
1C00
ENDCHAR

STARTCHAR oacute
ENCODING 243
SWIDTH 560 0
DWIDTH 11 0
BBX 9 13 1 0
BITMAP
0600
0C00
1800
0000
1C00
6300
C180
C180
C180
C180
C180
6300
1C00
ENDCHAR

STARTCHAR ocircumflex
ENCODING 244
SWIDTH 560 0
DWIDTH 11 0
BBX 9 13 1 0
BITMAP
1C00
3600
6300
0000
1C00
6300
C180
C180
C180
C180
C180
6300
1C00
ENDCHAR

STARTCHAR otilde
ENCODING 245
SWIDTH 560 0
DWIDTH 11 0
BBX 9 13 1 0
BITMAP
1900
3F00
2600
0000
1C00
6300
C180
C180
C180
C180
C180
6300
1C00
ENDCHAR

STARTCHAR odieresis
ENCODING 246
SWIDTH 560 0
DWIDTH 11 0
BBX 9 12 1 0
BITMAP
6300
6300
0000
1C00
6300
C180
C180
C180
C180
C180
6300
1C00
ENDCHAR

STARTCHAR divide
ENCODING 247
SWIDTH 600 0
DWIDTH 11 0
BBX 9 8 2 2
BITMAP
1800
1800
0000
FF80
0000
0000
1800
1800
ENDCHAR

STARTCHAR oslash
ENCODING 248
SWIDTH 560 0
DWIDTH 11 0
BBX 9 9 1 0
BITMAP
1D80
6300
C380
C580
C980
C980
D180
6300
DC00
ENDCHAR

STARTCHAR ugrave
ENCODING 249
SWIDTH 680 0
DWIDTH 13 0
BBX 11 13 1 0
BITMAP
1800
0C00
0600
0000
E1C0
60C0
60C0
60C0
60C0
60C0
60C0
71C0
3EE0
ENDCHAR

STARTCHAR uacute
ENCODING 250
SWIDTH 680 0
DWIDTH 13 0
BBX 11 13 1 0
BITMAP
0300
0600
0C00
0000
E1C0
60C0
60C0
60C0
60C0
60C0
60C0
71C0
3EE0
ENDCHAR

STARTCHAR ucircumflex
ENCODING 251
SWIDTH 680 0
DWIDTH 13 0
BBX 11 13 1 0
BITMAP
1C00
3600
6300
0000
E1C0
60C0
60C0
60C0
60C0
60C0
60C0
71C0
3EE0
ENDCHAR

STARTCHAR udieresis
ENCODING 252
SWIDTH 680 0
DWIDTH 13 0
BBX 11 12 1 0
BITMAP
3180
3180
0000
E1C0
60C0
60C0
60C0
60C0
60C0
60C0
71C0
3EE0
ENDCHAR

STARTCHAR dotlessi
ENCODING 253
SWIDTH 300 0
DWIDTH 6 0
BBX 4 9 1 0
BITMAP
20
E0
60
60
60
60
60
60
F0
ENDCHAR

STARTCHAR scedilla
ENCODING 254
SWIDTH 520 0
DWIDTH 10 0
BBX 8 13 1 -4
BITMAP
7C
E6
C2
70
3C
0E
83
C6
7C
10
18
04
38
ENDCHAR

STARTCHAR ydieresis
ENCODING 255
SWIDTH 540 0
DWIDTH 10 0
BBX 11 16 -1 -4
BITMAP
1980
1980
0000
78E0
30C0
3080
1880
1900
0900
0E00
0600
0600
0400
0C00
C800
7000
ENDCHAR
ENDFONT
